<?xml version="1.0" encoding="utf-8"?>
<!-- Generator: Adobe Illustrator 19.2.1, SVG Export Plug-In . SVG Version: 6.00 Build 0)  -->
<!DOCTYPE svg PUBLIC "-//W3C//DTD SVG 1.1//EN" "http://www.w3.org/Graphics/SVG/1.1/DTD/svg11.dtd">
<svg version="1.1" id="Layer_1" xmlns="http://www.w3.org/2000/svg" xmlns:xlink="http://www.w3.org/1999/xlink" x="0px" y="0px"
	 viewBox="0 0 24.1 25.3" style="enable-background:new 0 0 24.1 25.3;" xml:space="preserve">
<style type="text/css">
	.st0{fill:#FFFFFF;}
</style>
<g>
	<path d="M4,24.2h1c-0.4-1.4-0.6-3.1-0.6-5.1c0-2.9,0.5-5.5,1.3-6.9C5,12,4.4,11.6,4,11.1c-0.4,0.9-0.9,2.2-0.9,3.7
		c-0.1,3.6-1.4,4.3-1.4,4.3c1.4-4.6-2.6-9.6,0.5-13.5c1.2-1.5,2.7-2,4.1-2c2.3,0,4.4,1.3,4.7,2c0.3,0.6-0.1,1-0.4,1.2
		C10.8,7.3,11,7.9,11,8.6c0,1.8-1.2,3.3-2.8,3.8c0.5,0.9,0.9,2.3,1.1,4.1l0.5,0.3c0.1,0.1,0.6,0.2,1.3,0.6c1.5-1.4,2.6-1.9,2.9-2.1
		l0.2-0.2c0.4-2.1,1.1-3.7,2-4.7c-1.7-0.7-2.8-2.3-2.8-4.3c0-1.4,0.6-2.6,1.5-3.4C14.5,1.9,14,1.4,14,1.4c0.2,0,0.3,0,0.5,0
		c1.5,0,3.1-0.2,4.9-0.4c0.2,0,0.3,0,0.4,0c1.8,0,3.1,1.1,3.3,3.9c0.3,3.7-2.5,4.9-2.5,4.9l0,0c-0.3,0.2-0.5,0.3-0.8,0.5
		c1.4,1.4,2.3,4.5,2.3,8c0,2.3-0.4,4.3-1.1,5.9h1.1c0.6-1.6,1-3.7,1-5.9c0-3-0.7-5.8-1.8-7.7c0.8-0.4,3.1-2.1,2.8-5.8
		C23.8,0.6,21.3,0,19.8,0c-0.2,0-0.4,0-0.5,0c-0.4,0-0.9,0.1-1.3,0.1c-1.2,0.1-2.4,0.2-3.5,0.2c-0.2,0-0.3,0-0.5,0l-2.6-0.1l1.9,1.8
		c0,0,0.1,0.1,0.3,0.4c-0.8,1-1.3,2.2-1.3,3.5c0,1.8,0.9,3.5,2.3,4.6c-0.6,1-1.2,2.4-1.5,3.9c0,0-0.1,0-0.1,0.1
		c-0.4,0.3-1.2,0.7-2.1,1.5c-0.2-0.1-0.4-0.1-0.5-0.2c-0.1,0-0.1,0-0.2-0.1l0,0c-0.2-1.2-0.4-2.2-0.7-3C11,12,12,10.4,12,8.6
		c0-0.5-0.1-1-0.2-1.5c0.4-0.5,0.5-1.2,0.1-1.9c-0.5-1-3-2.5-5.6-2.5C4.4,2.7,2.7,3.5,1.5,5c-2.1,2.6-1.5,5.4-0.9,8.2
		c0.4,2,0.8,3.9,0.2,5.6l-0.7,2.4L2.2,20c0.2-0.1,0.7-0.5,1.2-1.6c0,0.2,0,0.5,0,0.7C3.4,20.9,3.6,22.7,4,24.2z"/>
	<path d="M9.9,24.2c0.3-1.3,0.5-2.9,0.5-4.5c0.4,0.3,0.9,0.5,1.5,0.5c0.3,0,0.6,0,0.9-0.1c0,0,0,0,0,0c0.1,1.5,0.5,2.9,0.9,4.1h1.1
		c-0.6-1.5-1-3.5-1.1-5.6c-0.4,0.3-0.8,0.5-1.2,0.6c-0.2,0.1-0.5,0.1-0.7,0.1c-0.5,0-0.9-0.2-1.1-0.5c0,0,0,0-0.1,0
		c-0.5-0.1-0.9-0.3-1.4-0.5c0,0.3,0,0.6,0,0.9c0,1.9-0.2,3.7-0.6,5.1H9.9z"/>
</g>
<path class="st0" d="M21.8,20.9c0,0-1.1,6.2-2.9,7s-4.4-3.6-4.7-6.2C13.8,19.2,21.8,20.9,21.8,20.9z"/>
<path class="st0" d="M9.3,21.6c0,0-0.5,4.7-1.6,5.6s-2.9-1.9-3.1-5.1C4.3,18.9,9.3,21.6,9.3,21.6z"/>
</svg>
